<svg viewBox="0 0 24 24"  xmlns="http://www.w3.org/2000/svg">
<path d="M13.4762 9.61905C14 9.61905 14.4286 9.19048 14.4286 8.66667V6.7619H16.3333C16.8571 6.7619 17.2857 6.33333 17.2857 5.80952C17.2857 5.28571 16.8571 4.85714 16.3333 4.85714H14.4286V2.95238C14.4286 2.42857 14 2 13.4762 2C12.9524 2 12.5238 2.42857 12.5238 2.95238V4.85714H10.619C10.0952 4.85714 9.66667 5.28571 9.66667 5.80952C9.66667 6.33333 10.0952 6.7619 10.619 6.7619H12.5238V8.66667C12.5238 9.19048 12.9524 9.61905 13.4762 9.61905ZM8.71429 18.1905C7.66667 18.1905 6.81905 19.0476 6.81905 20.0952C6.81905 21.1429 7.66667 22 8.71429 22C9.7619 22 10.619 21.1429 10.619 20.0952C10.619 19.0476 9.7619 18.1905 8.71429 18.1905ZM18.2381 18.1905C17.1905 18.1905 16.3429 19.0476 16.3429 20.0952C16.3429 21.1429 17.1905 22 18.2381 22C19.2857 22 20.1429 21.1429 20.1429 20.0952C20.1429 19.0476 19.2857 18.1905 18.2381 18.1905ZM9.7619 13.4286H16.8571C17.5714 13.4286 18.2 13.0381 18.5238 12.4476L21.7429 6.60952C22 6.15238 21.8286 5.57143 21.3714 5.31429C20.9143 5.06667 20.3333 5.22857 20.0857 5.68571L16.8571 11.5238H10.1714L6.37143 3.49524C6.21905 3.1619 5.87619 2.95238 5.51429 2.95238H3.95238C3.42857 2.95238 3 3.38095 3 3.90476C3 4.42857 3.42857 4.85714 3.95238 4.85714H4.90476L8.33333 12.0857L7.04762 14.4095C6.35238 15.6857 7.26667 17.2381 8.71429 17.2381H19.1905C19.7143 17.2381 20.1429 16.8095 20.1429 16.2857C20.1429 15.7619 19.7143 15.3333 19.1905 15.3333H8.71429L9.7619 13.4286Z" />
</svg>
