<svg viewBox="0 0 24 24"  xmlns="http://www.w3.org/2000/svg">
<path d="M21.18 5.01L18.1 2.45C17.68 2.1 17.05 2.15 16.69 2.58C16.34 3 16.4 3.63 16.82 3.99L19.89 6.55C20.31 6.9 20.94 6.85 21.3 6.42C21.66 6 21.6 5.37 21.18 5.01ZM4.10001 6.55L7.17001 3.99C7.60001 3.63 7.66001 3 7.30001 2.58C6.95001 2.15 6.32001 2.1 5.90001 2.45L2.82001 5.01C2.40001 5.37 2.34001 6 2.70001 6.42C3.05001 6.85 3.68001 6.9 4.10001 6.55ZM12 4C7.03001 4 3.00001 8.03 3.00001 13C3.00001 17.97 7.03001 22 12 22C16.97 22 21 17.97 21 13C21 8.03 16.97 4 12 4ZM12 20C8.14001 20 5.00001 16.86 5.00001 13C5.00001 9.14 8.14001 6 12 6C15.86 6 19 9.14 19 13C19 16.86 15.86 20 12 20ZM15 12H13V10C13 9.45 12.55 9 12 9C11.45 9 11 9.45 11 10V12H9.00001C8.45001 12 8.00001 12.45 8.00001 13C8.00001 13.55 8.45001 14 9.00001 14H11V16C11 16.55 11.45 17 12 17C12.55 17 13 16.55 13 16V14H15C15.55 14 16 13.55 16 13C16 12.45 15.55 12 15 12Z" />
</svg>
