<svg viewBox="0 0 24 24"  xmlns="http://www.w3.org/2000/svg">
<path d="M22 4.22222V11.5444L19.4556 8.98889C19.0222 8.55556 18.3111 8.55556 17.8778 8.98889L14.2222 12.6556L10.5667 9C10.1333 8.56667 9.43333 8.56667 9 9L5.33333 12.6556L2 9.31111V4.22222C2 3 3 2 4.22222 2H19.7778C21 2 22 3 22 4.22222ZM18.6667 11.3556L22 14.7V19.7778C22 21 21 22 19.7778 22H4.22222C3 22 2 21 2 19.7778V12.4667L4.54444 15.0111C4.97778 15.4444 5.67778 15.4444 6.11111 15.0111L9.77778 11.3444L13.4333 15C13.8667 15.4333 14.5667 15.4333 15 15L18.6667 11.3556Z" />
</svg>
