<svg viewBox="0 0 24 24"  xmlns="http://www.w3.org/2000/svg">
<path d="M12.4011 4.60258C10.697 2.9039 8.14515 2.5574 6.09346 3.55464L9.17099 6.62242C9.50164 6.95201 9.50164 7.48444 9.17099 7.81403L7.82298 9.15777C7.49234 9.49582 6.95822 9.49582 6.62758 9.15777L3.55004 6.08999C2.55811 8.14363 2.90571 10.6705 4.6098 12.3692C6.18672 13.9411 8.49275 14.3553 10.4512 13.62L17.1997 20.3471C18.073 21.2176 19.4803 21.2176 20.3451 20.3471C21.2183 19.4767 21.2183 18.0738 20.3451 17.2118L13.6305 10.51C14.4104 8.53238 14.0035 6.19986 12.4011 4.60258Z" />
</svg>
