<svg viewBox="0 0 24 24"  xmlns="http://www.w3.org/2000/svg">
<path d="M19.3636 3.81818H18.4545V2.90909C18.4545 2.40909 18.0455 2 17.5455 2C17.0455 2 16.6364 2.40909 16.6364 2.90909V3.81818H7.54545V2.90909C7.54545 2.40909 7.13636 2 6.63636 2C6.13636 2 5.72727 2.40909 5.72727 2.90909V3.81818H4.81818C3.81818 3.81818 3 4.63636 3 5.63636V20.1818C3 21.1818 3.81818 22 4.81818 22H19.3636C20.3636 22 21.1818 21.1818 21.1818 20.1818V5.63636C21.1818 4.63636 20.3636 3.81818 19.3636 3.81818ZM18.4545 20.1818H5.72727C5.22727 20.1818 4.81818 19.7727 4.81818 19.2727V8.36364H19.3636V19.2727C19.3636 19.7727 18.9545 20.1818 18.4545 20.1818Z" />
</svg>
