<svg viewBox="0 0 24 24"  xmlns="http://www.w3.org/2000/svg">
<path d="M16.5253 6.26755C16.1773 5.91956 15.6152 5.91956 15.2672 6.26755L10.2348 11.2999L11.4929 12.558L16.5253 7.51671C16.8643 7.17765 16.8643 6.6066 16.5253 6.26755ZM20.3084 6.25862L11.4929 15.0741L8.38785 11.978C8.03987 11.63 7.47775 11.63 7.12977 11.978C6.78179 12.326 6.78179 12.8881 7.12977 13.2361L10.8594 16.9657C11.2074 17.3137 11.7695 17.3137 12.1175 16.9657L21.5665 7.52563C21.9145 7.17765 21.9145 6.61553 21.5665 6.26755H21.5576C21.2185 5.91064 20.6564 5.91064 20.3084 6.25862ZM2.0885 13.245L5.81815 16.9747C6.16613 17.3226 6.72825 17.3226 7.07623 16.9747L7.70081 16.3501L3.34659 11.978C2.99861 11.63 2.43648 11.63 2.0885 11.978C1.74052 12.326 1.74052 12.897 2.0885 13.245Z" />
</svg>
