<svg viewBox="0 0 24 24"  xmlns="http://www.w3.org/2000/svg">
<path d="M11 3.18V20.82C11 21.46 10.41 21.94 9.79 21.8C5.32 20.8 2 16.79 2 12C2 7.21 5.32 3.2 9.79 2.2C10.41 2.06 11 2.54 11 3.18ZM13.03 3.18V9.99C13.03 10.54 13.48 10.99 14.03 10.99H20.82C21.46 10.99 21.94 10.4 21.8 9.77C20.95 6.01 18 3.05 14.25 2.2C13.62 2.06 13.03 2.54 13.03 3.18ZM13.03 14.01V20.82C13.03 21.46 13.62 21.94 14.25 21.8C18.01 20.95 20.96 17.98 21.81 14.22C21.95 13.6 21.46 13 20.83 13H14.04C13.48 13.01 13.03 13.46 13.03 14.01Z" />
</svg>
