<svg viewBox="0 0 24 24"  xmlns="http://www.w3.org/2000/svg">
<path d="M19.66 3.99C17.02 2.19 13.76 3.03 12 5.09C10.24 3.03 6.98003 2.18 4.34003 3.99C2.94003 4.95 2.06003 6.57 2.00003 8.28C1.86003 12.16 5.30003 15.27 10.55 20.04L10.65 20.13C11.41 20.82 12.58 20.82 13.34 20.12L13.45 20.02C18.7 15.26 22.13 12.15 22 8.27C21.94 6.57 21.06 4.95 19.66 3.99ZM12.1 18.55L12 18.65L11.9 18.55C7.14003 14.24 4.00003 11.39 4.00003 8.5C4.00003 6.5 5.50003 5 7.50003 5C8.71562 5 9.90628 5.61683 10.6146 6.55049C10.9541 6.99789 11.4403 7.36 12.0018 7.36C12.5666 7.36 13.0547 6.99368 13.3956 6.54347C14.0998 5.61374 15.2875 5 16.5 5C18.5 5 20 6.5 20 8.5C20 11.39 16.86 14.24 12.1 18.55Z" />
</svg>
