<svg viewBox="0 0 24 24"  xmlns="http://www.w3.org/2000/svg">
<path d="M20.5 19H3.5C2.95 19 2.5 19.45 2.5 20C2.5 20.55 2.95 21 3.5 21H20.5C21.05 21 21.5 20.55 21.5 20C21.5 19.45 21.05 19 20.5 19ZM3.51 11.61L19.34 15.85C20.14 16.06 20.96 15.59 21.18 14.79C21.39 13.99 20.92 13.17 20.12 12.95L14.81 11.53L12.23 3.08C12.12 2.72 11.84 2.45 11.48 2.35C10.8 2.17 10.13 2.68 10.13 3.39V10.27L5.15 8.95L4.4 7.09C4.28 6.8 4.04 6.58 3.73 6.5L3.4 6.41C3.08 6.32 2.77 6.56 2.77 6.89V10.64C2.77 11.1 3.07 11.49 3.51 11.61Z" />
</svg>
