<svg viewBox="0 0 24 24"  xmlns="http://www.w3.org/2000/svg">
<path d="M21.41 11.58L12.41 2.58C12.05 2.22 11.55 2 11 2H4C2.9 2 2 2.9 2 4V11C2 11.55 2.22 12.05 2.59 12.42L11.59 21.42C11.95 21.78 12.45 22 13 22C13.55 22 14.05 21.78 14.41 21.41L21.41 14.41C21.78 14.05 22 13.55 22 13C22 12.45 21.77 11.94 21.41 11.58ZM5.5 7C4.67 7 4 6.33 4 5.5C4 4.67 4.67 4 5.5 4C6.33 4 7 4.67 7 5.5C7 6.33 6.33 7 5.5 7ZM17.27 15.27L13.35 19.19C13.15 19.39 12.84 19.39 12.64 19.19L8.72 15.27C8.15 14.69 7.85 13.84 8.05 12.93C8.24 12.05 8.94 11.32 9.81 11.09C10.75 10.84 11.66 11.13 12.25 11.74L13 12.46L13.73 11.73C14.18 11.28 14.81 11 15.5 11C16.88 11 18 12.12 18 13.5C18 14.19 17.72 14.82 17.27 15.27Z" />
</svg>
