<svg viewBox="0 0 24 24"  xmlns="http://www.w3.org/2000/svg">
<path d="M17.65 6.35001C16.02 4.72001 13.71 3.78001 11.17 4.04001C7.50002 4.41001 4.48002 7.39001 4.07002 11.06C3.52002 15.91 7.27002 20 12 20C15.19 20 17.93 18.13 19.21 15.44C19.53 14.77 19.05 14 18.31 14C17.94 14 17.59 14.2 17.43 14.53C16.3 16.96 13.59 18.5 10.63 17.84C8.41002 17.35 6.62002 15.54 6.15002 13.32C5.31002 9.44001 8.26002 6.00001 12 6.00001C13.66 6.00001 15.14 6.69001 16.22 7.78001L14.71 9.29001C14.08 9.92001 14.52 11 15.41 11H19C19.55 11 20 10.55 20 10V6.41001C20 5.52001 18.92 5.07001 18.29 5.70001L17.65 6.35001Z" />
</svg>
