<svg viewBox="0 0 24 24"  xmlns="http://www.w3.org/2000/svg">
<path d="M0.70998 1.83C0.31998 2.22 0.31998 2.85 0.70998 3.24L4.38998 6.92L6.59998 11.58L5.24998 14.03C5.05998 14.36 4.96998 14.76 5.00998 15.18C5.10998 16.24 6.06998 17 7.12998 17H14.46L15.84 18.38C15.34 18.74 15.01 19.33 15.01 20C15.01 21.1 15.9 22 17 22C17.67 22 18.26 21.67 18.62 21.16L20.75 23.29C21.14 23.68 21.77 23.68 22.16 23.29C22.55 22.9 22.55 22.27 22.16 21.88L2.11998 1.83C1.72998 1.44 1.09998 1.44 0.70998 1.83ZM6.99998 15L8.09998 13H10.46L12.46 15H6.99998ZM16.05 12.94C16.59 12.8 17.04 12.45 17.3 11.97L20.88 5.48C21.25 4.82 20.76 4 20 4H7.11998L16.05 12.94ZM6.99998 18C5.89998 18 5.00998 18.9 5.00998 20C5.00998 21.1 5.89998 22 6.99998 22C8.09998 22 8.99998 21.1 8.99998 20C8.99998 18.9 8.09998 18 6.99998 18Z" />
</svg>
