<svg viewBox="0 0 24 24"  xmlns="http://www.w3.org/2000/svg">
<g clip-path="url(#clip0)">
<path d="M6.99998 7.56C6.99998 6.62 5.85998 6.14 5.18998 6.81L0.70998 11.29C0.31998 11.68 0.31998 12.31 0.70998 12.7L5.18998 17.18C5.85998 17.86 6.99998 17.38 6.99998 16.44C6.99998 16.16 6.88998 15.89 6.68998 15.69L2.99998 12L6.68998 8.31C6.88998 8.11 6.99998 7.84 6.99998 7.56ZM13 9V7.41C13 6.52 11.92 6.07 11.29 6.7L6.69998 11.29C6.30998 11.68 6.30998 12.31 6.69998 12.7L11.29 17.29C11.92 17.92 13 17.47 13 16.58V14.9C18 14.9 21.5 16.5 24 20C23 15 20 10 13 9Z" />
</g>
<defs>
<clipPath id="clip0">
<rect fill="white"/>
</clipPath>
</defs>
</svg>
