<svg viewBox="0 0 24 24"  xmlns="http://www.w3.org/2000/svg">
<path d="M12 7C12.55 7 13 7.45 13 8V9.33L20.2 16.53L20.71 16.02C20.9 15.83 21 15.58 21 15.31V8.68C21 8.41 20.89 8.16 20.71 7.97L16.03 3.29C15.84 3.11 15.58 3 15.32 3H8.68C8.42 3 8.16 3.11 7.98 3.29L7.47 3.8L11.16 7.49C11.33 7.2 11.64 7 12 7ZM2.41 1.58L1 2.99L4.64 6.63L3.29 7.98C3.11 8.16 3 8.42 3 8.68V15.31C3 15.58 3.11 15.83 3.29 16.02L7.97 20.7C8.16 20.89 8.42 21 8.68 21H15.31C15.58 21 15.83 20.89 16.02 20.71L17.37 19.36L21.01 23L22.42 21.59L2.41 1.58ZM12 17.3C11.28 17.3 10.7 16.72 10.7 16C10.7 15.28 11.28 14.7 12 14.7C12.72 14.7 13.3 15.28 13.3 16C13.3 16.72 12.72 17.3 12 17.3Z" />
</svg>
