<svg viewBox="0 0 24 24"  xmlns="http://www.w3.org/2000/svg">
<path d="M16.1986 14.608H15.3645L15.0688 14.3231C16.3359 12.8458 16.9905 10.8304 16.6315 8.68827C16.1352 5.75477 13.6857 3.41219 10.7294 3.05342C6.26319 2.50471 2.50442 6.26128 3.05345 10.7248C3.41244 13.6794 5.75639 16.1275 8.69161 16.6235C10.835 16.9823 12.8516 16.328 14.3298 15.0618L14.6148 15.3572V16.1909L19.1021 20.6755C19.535 21.1082 20.2424 21.1082 20.6753 20.6755C21.1082 20.2429 21.1082 19.5359 20.6753 19.1032L16.1986 14.608ZM9.86358 14.608C7.23456 14.608 5.11233 12.487 5.11233 9.85956C5.11233 7.23207 7.23456 5.11109 9.86358 5.11109C12.4926 5.11109 14.6148 7.23207 14.6148 9.85956C14.6148 12.487 12.4926 14.608 9.86358 14.608Z" />
</svg>
