<svg viewBox="0 0 24 24"  xmlns="http://www.w3.org/2000/svg">
<path d="M17.5542 15.7229C16.8675 15.7229 16.253 15.994 15.7831 16.4187L9.34036 12.6687C9.38554 12.4608 9.42169 12.253 9.42169 12.0361C9.42169 11.8193 9.38554 11.6114 9.34036 11.4036L15.7108 7.68976C16.1988 8.14157 16.8404 8.42169 17.5542 8.42169C19.0542 8.42169 20.2651 7.21084 20.2651 5.71084C20.2651 4.21084 19.0542 3 17.5542 3C16.0542 3 14.8434 4.21084 14.8434 5.71084C14.8434 5.92771 14.8795 6.13554 14.9247 6.34337L8.55422 10.0572C8.06627 9.60542 7.4247 9.3253 6.71084 9.3253C5.21084 9.3253 4 10.5361 4 12.0361C4 13.5361 5.21084 14.747 6.71084 14.747C7.4247 14.747 8.06627 14.4669 8.55422 14.0151L14.988 17.7741C14.9428 17.9639 14.9157 18.1627 14.9157 18.3614C14.9157 19.8163 16.0994 21 17.5542 21C19.009 21 20.1928 19.8163 20.1928 18.3614C20.1928 16.9066 19.009 15.7229 17.5542 15.7229Z" />
</svg>
