<svg viewBox="0 0 24 24"  xmlns="http://www.w3.org/2000/svg">
<path d="M20.0432 8.76012L14.9534 8.31845L12.9659 3.63884C12.6084 2.78705 11.3885 2.78705 11.031 3.63884L9.04348 8.32896L3.96427 8.76012C3.03886 8.83373 2.66029 9.99048 3.36486 10.6004L7.22422 13.9445L6.06746 18.908C5.85714 19.8124 6.83512 20.5275 7.63434 20.0437L11.9985 17.4148L16.3626 20.0543C17.1618 20.538 18.1398 19.8229 17.9295 18.9185L16.7727 13.9445L20.6321 10.6004C21.3366 9.99048 20.9686 8.83373 20.0432 8.76012ZM11.9985 15.4483V5.66842L13.7967 9.91687L18.4027 10.3165L14.9114 13.3451L15.963 17.8459L11.9985 15.4483Z" />
</svg>
