<svg viewBox="0 0 24 24"  xmlns="http://www.w3.org/2000/svg">
<path d="M4.37372 5.17894H19.6263C20.2255 5.17894 20.7158 4.68868 20.7158 4.08947C20.7158 3.49026 20.2255 3 19.6263 3H4.37372C3.77451 3 3.28425 3.49026 3.28425 4.08947C3.28425 4.68868 3.77451 5.17894 4.37372 5.17894ZM20.8901 7.13998C20.792 6.63883 20.3453 6.26841 19.8224 6.26841H4.17761C3.65467 6.26841 3.20799 6.63883 3.10993 7.13998L2.02047 12.5873C1.88973 13.2628 2.40178 13.8947 3.08814 13.8947H3.28425V19.342C3.28425 19.9412 3.77451 20.4315 4.37372 20.4315H13.0895C13.6887 20.4315 14.1789 19.9412 14.1789 19.342V13.8947H18.5368V19.342C18.5368 19.9412 19.0271 20.4315 19.6263 20.4315C20.2255 20.4315 20.7158 19.9412 20.7158 19.342V13.8947H20.9119C21.5982 13.8947 22.1103 13.2628 21.9795 12.5873L20.8901 7.13998ZM12 18.2526H5.46319V13.8947H12V18.2526Z" />
</svg>
