<svg viewBox="0 0 24 24"  xmlns="http://www.w3.org/2000/svg">
<path d="M6.14003 11.86L3.36003 14.65C3.17003 14.85 3.17003 15.16 3.36003 15.36L6.14003 18.15C6.45003 18.47 6.99003 18.24 6.99003 17.8V16H13C13.55 16 14 15.55 14 15C14 14.45 13.55 14 13 14H6.99003V12.21C6.99003 11.76 6.45003 11.54 6.14003 11.86ZM20.65 8.65L17.87 5.86C17.56 5.54 17.02 5.77 17.02 6.21V8H11C10.45 8 10 8.45 10 9C10 9.55 10.45 10 11 10H17.01V11.79C17.01 12.24 17.55 12.46 17.86 12.14L20.64 9.35C20.84 9.16 20.84 8.84 20.65 8.65Z" />
</svg>
