<svg viewBox="0 0 24 24"  xmlns="http://www.w3.org/2000/svg">
<path d="M10.8112 20.9586L15.7626 15.9981C16.0939 15.6668 16.282 15.2102 16.282 14.7356V5.79077C16.282 4.80584 15.4761 4 14.4912 4H6.4417C5.72539 4 5.08072 4.42978 4.80315 5.08341L1.8842 11.8973C1.12313 13.6701 2.42143 15.64 4.3465 15.64H9.40542L8.5548 19.7408C8.46526 20.1885 8.59957 20.6452 8.92191 20.9675C9.45019 21.4868 10.2918 21.4868 10.8112 20.9586ZM19.8724 4C18.8875 4 18.0817 4.80584 18.0817 5.79077V12.9538C18.0817 13.9388 18.8875 14.7446 19.8724 14.7446C20.8574 14.7446 21.6632 13.9388 21.6632 12.9538V5.79077C21.6632 4.80584 20.8574 4 19.8724 4Z" />
</svg>
