<svg viewBox="0 0 24 24"  xmlns="http://www.w3.org/2000/svg">
<path d="M12.8495 3.01348L7.89026 7.97276C7.55904 8.30397 7.37106 8.76051 7.37106 9.23496V18.1778C7.37106 19.1625 8.17671 19.9681 9.16141 19.9681H17.218C17.9341 19.9681 18.5787 19.5384 18.8651 18.885L21.7834 12.0727C22.5353 10.3002 21.2373 8.33083 19.3127 8.33083H14.255L15.1054 4.23092C15.1949 3.78333 15.0606 3.32679 14.7384 3.00453C14.2102 2.48533 13.3687 2.48533 12.8495 3.01348ZM3.79035 19.9681C4.77505 19.9681 5.5807 19.1625 5.5807 18.1778V11.0164C5.5807 10.0317 4.77505 9.226 3.79035 9.226C2.80566 9.226 2 10.0317 2 11.0164V18.1778C2 19.1625 2.80566 19.9681 3.79035 19.9681Z" />
</svg>
