<svg viewBox="0 0 24 24"  xmlns="http://www.w3.org/2000/svg">
<path d="M8.79 9.24V5.5C8.79 4.12 9.91 3 11.29 3C12.67 3 13.79 4.12 13.79 5.5V9.24C15 8.43 15.79 7.06 15.79 5.5C15.79 3.01 13.78 1 11.29 1C8.8 1 6.79 3.01 6.79 5.5C6.79 7.06 7.58 8.43 8.79 9.24ZM14.29 11.71C14.01 11.57 13.71 11.5 13.4 11.5H12.79V5.5C12.79 4.67 12.12 4 11.29 4C10.46 4 9.79 4.67 9.79 5.5V16.24L6.35 15.52C5.98 15.44 5.59 15.56 5.32 15.83C4.89 16.27 4.89 16.97 5.32 17.41L9.33 21.42C9.71 21.79 10.22 22 10.75 22H16.85C17.85 22 18.69 21.27 18.83 20.28L19.46 15.81C19.58 14.96 19.14 14.12 18.37 13.74L14.29 11.71Z" />
</svg>
