<svg viewBox="0 0 24 24"  xmlns="http://www.w3.org/2000/svg">
<path d="M8.12001 19.3C8.51001 19.69 9.14001 19.69 9.53001 19.3L12 16.83L14.47 19.3C14.86 19.69 15.49 19.69 15.88 19.3C16.27 18.91 16.27 18.28 15.88 17.89L12.71 14.72C12.32 14.33 11.69 14.33 11.3 14.72L8.13001 17.89C7.73001 18.27 7.73001 18.91 8.12001 19.3ZM15.88 4.7C15.49 4.31 14.86 4.31 14.47 4.7L12 7.17L9.53001 4.7C9.14001 4.31 8.51001 4.31 8.12001 4.7C7.73001 5.09 7.73001 5.73 8.12001 6.12L11.29 9.29C11.68 9.68 12.31 9.68 12.7 9.29L15.87 6.12C16.27 5.73 16.27 5.09 15.88 4.7Z" />
</svg>
