<svg viewBox="0 0 24 24"  xmlns="http://www.w3.org/2000/svg">
<path d="M19 13V18C19 18.55 18.55 19 18 19H6C5.45 19 5 18.55 5 18V13C5 12.45 4.55 12 4 12C3.45 12 3 12.45 3 13V19C3 20.1 3.9 21 5 21H19C20.1 21 21 20.1 21 19V13C21 12.45 20.55 12 20 12C19.45 12 19 12.45 19 13ZM10.99 6.4125L9.11 8.2925C8.72 8.6825 8.09 8.6825 7.7 8.2925C7.31 7.9025 7.31 7.2725 7.7 6.8825L11.29 3.2925C11.68 2.9025 12.31 2.9025 12.7 3.2925L16.29 6.8825C16.68 7.2725 16.68 7.9025 16.29 8.2925C15.9 8.6825 15.27 8.6825 14.88 8.2925L12.99 6.4125V15.0825C12.99 15.6325 12.54 16.0825 11.99 16.0825C11.44 16.0825 10.99 15.6325 10.99 15.0825V6.4125Z" />
</svg>
