<svg viewBox="0 0 24 24"  xmlns="http://www.w3.org/2000/svg">
<path d="M11.5095 2.15817L5.09112 5.00974C4.43095 5.30315 4 5.96332 4 6.68768V10.9971C4 16.086 7.52092 20.8447 12.2521 22C16.9834 20.8447 20.5043 16.086 20.5043 10.9971V6.68768C20.5043 5.96332 20.0734 5.30315 19.4132 5.00974L12.9948 2.15817C12.5272 1.94728 11.9771 1.94728 11.5095 2.15817ZM9.76733 15.8476L7.39255 13.4728C7.03496 13.1152 7.03496 12.5375 7.39255 12.1799C7.75014 11.8223 8.32779 11.8223 8.68539 12.1799L10.4183 13.9037L15.8097 8.51232C16.1673 8.15473 16.745 8.15473 17.1026 8.51232C17.4602 8.86991 17.4602 9.44756 17.1026 9.80516L11.0602 15.8476C10.7117 16.2052 10.1249 16.2052 9.76733 15.8476Z" />
</svg>
