<svg viewBox="0 0 24 24"  xmlns="http://www.w3.org/2000/svg">
<path d="M12 5C7.45455 5 3.57273 7.82727 2 11.8182C3.57273 15.8091 7.45455 18.6364 12 18.6364C16.5455 18.6364 20.4273 15.8091 22 11.8182C20.4273 7.82727 16.5455 5 12 5ZM12 16.3636C9.49091 16.3636 7.45455 14.3273 7.45455 11.8182C7.45455 9.30909 9.49091 7.27273 12 7.27273C14.5091 7.27273 16.5455 9.30909 16.5455 11.8182C16.5455 14.3273 14.5091 16.3636 12 16.3636ZM12 9.09091C10.4909 9.09091 9.27273 10.3091 9.27273 11.8182C9.27273 13.3273 10.4909 14.5455 12 14.5455C13.5091 14.5455 14.7273 13.3273 14.7273 11.8182C14.7273 10.3091 13.5091 9.09091 12 9.09091Z" />
</svg>
