<svg viewBox="0 0 24 24"  xmlns="http://www.w3.org/2000/svg">
<path d="M12 7.30227C14.5091 7.30227 16.5455 9.33864 16.5455 11.8477C16.5455 12.3114 16.4545 12.7568 16.3273 13.175L19.1091 15.9568C20.3727 14.8386 21.3727 13.4386 22 11.8386C20.4273 7.85682 16.5455 5.02955 12 5.02955C10.8455 5.02955 9.73636 5.21136 8.69091 5.54773L10.6636 7.52045C11.0909 7.39318 11.5364 7.30227 12 7.30227ZM3.55455 4.26591C3.2 4.62045 3.2 5.19318 3.55455 5.54773L5.34545 7.33864C3.87273 8.51136 2.7 10.0568 2 11.8477C3.57273 15.8386 7.45455 18.6659 12 18.6659C13.3818 18.6659 14.7 18.3932 15.9182 17.9205L18.3909 20.3932C18.7455 20.7477 19.3182 20.7477 19.6727 20.3932C20.0273 20.0386 20.0273 19.4659 19.6727 19.1114L4.84545 4.26591C4.49091 3.91136 3.90909 3.91136 3.55455 4.26591ZM12 16.3932C9.49091 16.3932 7.45455 14.3568 7.45455 11.8477C7.45455 11.1477 7.61818 10.4841 7.9 9.90227L9.32727 11.3295C9.3 11.4932 9.27273 11.6659 9.27273 11.8477C9.27273 13.3568 10.4909 14.575 12 14.575C12.1818 14.575 12.3455 14.5477 12.5182 14.5114L13.9455 15.9386C13.3545 16.2295 12.7 16.3932 12 16.3932ZM14.7 11.5477C14.5636 10.275 13.5636 9.28409 12.3 9.14773L14.7 11.5477Z" />
</svg>
