<svg viewBox="0 0 24 24"  xmlns="http://www.w3.org/2000/svg">
<path d="M16.1909 14.608H15.3572L15.0618 14.3231C16.328 12.8458 16.9823 10.8304 16.6235 8.68827C16.1275 5.75477 13.6794 3.41219 10.7248 3.05342C6.26128 2.50471 2.50471 6.26128 3.05342 10.7248C3.41219 13.6794 5.75477 16.1275 8.68827 16.6235C10.8304 16.9823 12.8458 16.328 14.3231 15.0618L14.608 15.3572V16.1909L19.1032 20.6755C19.5359 21.1082 20.2323 21.1082 20.665 20.6755L20.6755 20.665C21.1082 20.2323 21.1082 19.5359 20.6755 19.1032L16.1909 14.608ZM9.85956 14.608C7.23207 14.608 5.11109 12.487 5.11109 9.85956C5.11109 7.23207 7.23207 5.11109 9.85956 5.11109C12.487 5.11109 14.608 7.23207 14.608 9.85956C14.608 12.487 12.487 14.608 9.85956 14.608ZM7.74913 9.33195H11.97C12.2655 9.33195 12.4976 9.5641 12.4976 9.85956C12.4976 10.155 12.2655 10.3872 11.97 10.3872H7.74913C7.45367 10.3872 7.22152 10.155 7.22152 9.85956C7.22152 9.5641 7.45367 9.33195 7.74913 9.33195Z" />
</svg>
