<svg viewBox="0 0 24 24"  xmlns="http://www.w3.org/2000/svg">
<path d="M16.1891 14.608H15.3554L15.06 14.3231C16.3262 12.8458 16.9805 10.8304 16.6217 8.68827C16.1257 5.75477 13.6776 3.41219 10.723 3.05342C6.25948 2.50471 2.51346 6.26128 3.05162 10.7248C3.41039 13.6794 5.75297 16.1275 8.68647 16.6235C10.8286 16.9823 12.844 16.328 14.3213 15.0618L14.6062 15.3572V16.1909L19.1015 20.6755C19.5341 21.1082 20.2305 21.1082 20.6632 20.6755L20.6737 20.665C21.1064 20.2323 21.1064 19.5359 20.6737 19.1032L16.1891 14.608ZM9.85776 14.608C7.23027 14.608 5.10929 12.487 5.10929 9.85956C5.10929 7.23207 7.23027 5.11109 9.85776 5.11109C12.4852 5.11109 14.6062 7.23207 14.6062 9.85956C14.6062 12.487 12.4852 14.608 9.85776 14.608ZM9.85776 7.22152C9.5623 7.22152 9.33015 7.45367 9.33015 7.74913V9.33195H7.74733C7.45187 9.33195 7.21972 9.5641 7.21972 9.85956C7.21972 10.155 7.45187 10.3872 7.74733 10.3872H9.33015V11.97C9.33015 12.2655 9.5623 12.4976 9.85776 12.4976C10.1532 12.4976 10.3854 12.2655 10.3854 11.97V10.3872H11.9682C12.2637 10.3872 12.4958 10.155 12.4958 9.85956C12.4958 9.5641 12.2637 9.33195 11.9682 9.33195H10.3854V7.74913C10.3854 7.45367 10.1532 7.22152 9.85776 7.22152Z" />
</svg>
